<?xml version="1.0" encoding="UTF-8"?>
<svg width="60px" height="60px" viewBox="0 0 60 60" version="1.1" xmlns="http://www.w3.org/2000/svg" xmlns:xlink="http://www.w3.org/1999/xlink">
    <title>切片</title>
    <defs>
        <polygon id="path-1" points="0 0 40.3323611 0 40.3323611 24.6240278 0 24.6240278"></polygon>
    </defs>
    <g id="图片资源" stroke="none" stroke-width="1" fill="none" fill-rule="evenodd">
        <g transform="translate(-378.000000, -430.000000)" id="kusama">
            <g transform="translate(378.000000, 430.000000)" id="编组-2">
                <circle id="椭圆形" fill="#000000" cx="30" cy="30" r="30"></circle>
                <g id="编组" transform="translate(7.500000, 17.500185)">
                    <mask id="mask-2" fill="white">
                        <use xlink:href="#path-1"></use>
                    </mask>
                    <g id="Clip-2"></g>
                    <path d="M37.9624537,1.31800926 C37.35875,0.843009259 36.6305093,0.191157407 35.3161574,0.0203240741 C34.0754167,-0.14125 32.8193981,0.685601852 31.9675463,1.23328704 C31.1156944,1.78050926 29.5036574,3.3925463 28.8346759,3.87958333 C28.1656944,4.36569444 26.4619907,4.82217593 23.7249537,6.46476852 C20.9874537,8.10736111 10.2198611,15.0119907 10.2198611,15.0119907 L13.0180093,15.0425463 L0.547175926,21.4906944 L1.79439815,21.4906944 L-4.6296296e-05,22.859213 C-4.6296296e-05,22.859213 1.58097222,23.2851389 2.91939815,22.433287 L2.92449074,22.8180093 C2.92449074,22.8180093 17.7851389,16.9601389 20.6647685,18.4809722 L18.9184722,18.99625 C19.070787,18.99625 21.8994907,19.1791204 21.8994907,19.1791204 C21.8994907,19.1791204 21.9906944,20.9430093 23.6943981,22.0684722 C25.3976389,23.1939352 25.4281944,23.8022685 25.4281944,23.8022685 C25.4281944,23.8022685 24.54625,24.1675463 24.54625,24.6240278 C24.54625,24.6240278 25.8536574,24.2281944 27.070787,24.25875 C28.2874537,24.2888426 29.3518056,24.6240278 29.3518056,24.6240278 C29.3518056,24.6240278 29.2606019,24.1369907 28.0740278,23.8022685 C26.8879167,23.4680093 25.7318981,22.1902315 25.1541204,21.4906944 C24.5763426,20.7911574 24.1879167,19.5439352 24.67125,18.296713 C25.0814352,17.2379167 26.5027315,16.6522685 29.4430093,15.133287 C32.9119907,13.3420833 33.7013426,12.0004167 34.1879167,10.9661574 C34.6744907,9.93236111 35.4045833,7.86384259 35.8078241,6.89069444 C36.3235648,5.64300926 36.9559722,4.97449074 37.4731019,4.57912037 C37.9902315,4.18328704 40.3323611,3.30134259 40.3323611,3.30134259 C40.3323611,3.30134259 38.5439352,1.7749537 37.9624537,1.31800926" id="Fill-1" fill="#FFFFFF" mask="url(#mask-2)"></path>
                </g>
            </g>
        </g>
    </g>
</svg>