<?xml version="1.0" encoding="utf-8"?>
<!-- Generator: Adobe Illustrator 16.0.0, SVG Export Plug-In . SVG Version: 6.00 Build 0)  -->
<!DOCTYPE svg PUBLIC "-//W3C//DTD SVG 1.1//EN" "http://www.w3.org/Graphics/SVG/1.1/DTD/svg11.dtd">
<svg version="1.1" id="图层_1" xmlns="http://www.w3.org/2000/svg" xmlns:xlink="http://www.w3.org/1999/xlink" x="0px" y="0px"
	 width="358px" height="99px" viewBox="0 0 358 99" enable-background="new 0 0 358 99" xml:space="preserve">
<rect x="107.849" y="36.578" fill="#0025FF" width="28.985" height="8.234"/>
<rect x="143.546" y="36.578" fill="#0025FF" width="8.234" height="33.762"/>
<rect x="213.951" y="36.578" fill="#0025FF" width="8.234" height="33.762"/>
<rect x="234.702" y="36.578" fill="#0025FF" width="8.235" height="33.762"/>
<rect x="271.387" y="43.536" fill="#1E1E1E" width="8.234" height="19.845"/>
<rect x="323.018" y="43.536" fill="#1E1E1E" width="8.233" height="26.804"/>
<rect x="343.768" y="36.578" fill="#1E1E1E" width="8.234" height="33.762"/>
<rect x="295.555" y="49.341" fill="#1E1E1E" width="12.516" height="8.235"/>
<rect x="258.87" y="36.578" fill="#1E1E1E" width="12.517" height="6.958"/>
<rect x="258.87" y="63.381" fill="#1E1E1E" width="12.517" height="6.958"/>
<rect x="295.555" y="36.578" fill="#1E1E1E" width="12.516" height="6.958"/>
<rect x="323.018" y="36.578" fill="#1E1E1E" width="20.75" height="6.958"/>
<rect x="331.251" y="63.381" fill="#1E1E1E" width="12.517" height="6.958"/>
<rect x="250.636" y="36.578" fill="#1E1E1E" width="8.234" height="33.762"/>
<rect x="287.32" y="36.578" fill="#1E1E1E" width="8.234" height="33.762"/>
<rect x="308.07" y="36.578" fill="#1E1E1E" width="8.236" height="33.762"/>
<rect x="178.254" y="36.742" fill="#0025FF" width="8.234" height="33.762"/>
<rect x="199.994" y="61.445" fill="#0025FF" width="8.234" height="9.059"/>
<rect x="199.994" y="36.742" fill="#0025FF" width="8.234" height="20.833"/>
<rect x="143.546" y="36.578" fill="#0025FF" width="28.985" height="8.234"/>
<rect x="213.951" y="36.578" fill="#0025FF" width="28.986" height="8.234"/>
<rect x="213.951" y="62.27" fill="#0025FF" width="28.986" height="8.234"/>
<rect x="178.254" y="36.742" fill="#0025FF" width="29.975" height="8.234"/>
<rect x="178.254" y="49.341" fill="#0025FF" width="29.975" height="8.235"/>
<rect x="124.164" y="40.657" transform="matrix(0.8081 0.589 -0.589 0.8081 53.7853 -66.0542)" fill="#0025FF" width="8.235" height="17.746"/>
<rect x="143.546" y="62.104" fill="#0025FF" width="28.985" height="8.234"/>
<rect x="151.78" y="49.341" fill="#0025FF" width="20.751" height="8.235"/>
<rect x="107.849" y="62.27" fill="#0025FF" width="28.985" height="8.234"/>
<rect x="234.702" y="36.578" fill="#FF7F0B" width="8.235" height="8.234"/>
<path fill="#070707" d="M49.467,4.034C24.356,4.034,4,24.39,4,49.501c0,25.11,20.356,45.467,45.467,45.467
	c25.111,0,45.467-20.356,45.467-45.467C94.935,24.39,74.579,4.034,49.467,4.034 M66.714,69.688H32.22v-9.799h34.494V69.688z
	 M66.714,39.114H66.69L56.174,53.541l-8.427-5.075l6.817-9.352H32.22v-9.8h34.494V39.114z"/>
</svg>
